<?xml version="1.0" encoding="UTF-8" standalone="no"?>
<!DOCTYPE svg PUBLIC "-//W3C//DTD SVG 1.1//EN" "http://www.w3.org/Graphics/SVG/1.1/DTD/svg11.dtd">
<svg xmlns="http://www.w3.org/2000/svg" version="1.1" viewBox="0.00 0.00 500.00 500.00">
<g stroke-width="2.00" fill="none" stroke-linecap="butt">
<path stroke="#f18383" vector-effect="non-scaling-stroke" d="
  M 109.42 54.96
  Q 108.06 58.31 108.17 61.47
  C 108.26 64.31 107.10 66.62 107.22 69.59
  C 107.34 72.58 106.18 75.92 106.14 79.31
  A 8.63 8.22 -40.1 0 1 105.96 80.94
  Q 104.81 86.43 105.26 91.53
  Q 105.28 91.78 104.36 95.81
  C 103.04 101.64 108.86 101.98 112.61 103.44
  A 6.58 6.46 74.8 0 1 114.27 104.41
  Q 122.10 110.84 122.28 120.51
  C 122.34 123.75 121.06 128.81 120.35 131.78
  C 119.39 135.84 117.14 138.80 115.84 142.91
  C 114.71 146.47 112.44 149.78 110.49 153.71
  Q 100.80 173.21 99.74 175.15
  C 97.78 178.75 96.30 183.79 93.78 187.59
  C 91.80 190.57 91.05 193.80 89.48 196.70
  C 86.87 201.53 85.77 206.39 83.45 212.11
  Q 81.87 216.03 80.51 220.64
  C 76.45 234.42 73.18 248.50 73.14 262.84
  Q 73.10 276.04 73.24 278.00
  Q 73.79 285.73 76.16 300.39
  C 77.10 306.17 78.73 311.77 79.93 317.79
  Q 80.98 323.01 83.58 330.61
  C 88.02 343.55 90.08 349.84 95.27 360.88
  Q 98.43 367.60 103.44 375.72
  Q 110.35 386.93 112.64 389.95
  C 125.46 406.89 140.54 421.25 158.77 431.98
  C 162.34 434.08 168.37 437.45 173.32 439.58
  Q 198.18 450.32 224.28 453.41
  Q 228.44 453.90 234.71 453.86
  A 13.11 12.91 -38.8 0 1 237.30 454.12
  C 242.82 455.24 248.68 454.82 255.94 454.78
  C 259.38 454.77 261.97 453.87 265.15 453.85
  C 269.58 453.84 273.31 452.87 279.69 451.89
  Q 283.02 451.37 287.24 450.32
  Q 301.85 446.70 316.80 440.88
  Q 325.15 437.64 331.91 433.91
  Q 340.35 429.25 346.35 425.59
  C 358.79 418.01 371.14 407.60 381.04 395.91
  Q 390.91 384.26 392.58 381.83
  Q 393.99 379.79 398.77 372.23
  Q 401.24 368.32 402.14 366.27
  C 404.18 361.60 406.78 358.46 409.03 353.38
  C 410.77 349.47 413.00 345.69 414.40 340.35
  C 415.44 336.39 417.27 332.58 418.35 329.07
  Q 419.35 325.81 422.74 312.06
  Q 425.70 300.09 427.22 288.47
  C 427.89 283.34 427.84 279.47 427.82 274.47
  A 11.30 10.80 51.9 0 1 428.03 272.32
  C 429.25 266.22 429.16 257.18 428.21 249.53
  Q 427.90 247.07 427.76 240.50
  Q 427.66 236.19 425.72 223.83
  Q 424.69 217.26 422.57 209.92
  Q 419.09 197.91 418.47 196.26
  Q 411.25 177.06 398.72 151.88
  C 395.90 146.23 393.87 141.03 391.42 135.32
  Q 388.63 128.79 387.84 120.98
  Q 386.66 109.18 396.38 103.09
  C 398.04 102.05 400.12 101.46 401.76 100.74
  C 404.96 99.33 403.64 95.85 403.14 93.30
  A 14.94 14.64 -51.3 0 1 402.87 90.59
  Q 402.81 83.04 402.82 76.40
  C 402.83 71.32 401.74 66.13 401.83 60.84
  C 401.92 56.07 400.22 53.35 395.31 54.29
  Q 382.85 56.66 369.30 60.82
  C 362.26 62.99 356.06 65.87 350.45 69.19
  Q 343.98 73.00 339.19 78.60
  C 335.15 83.31 333.16 89.37 333.18 95.24
  C 333.19 100.28 332.98 103.58 333.72 108.21
  C 334.46 112.86 334.80 119.29 336.07 124.34
  C 337.54 130.20 339.78 134.27 341.49 139.48
  Q 342.76 143.35 344.42 147.02
  Q 355.02 170.41 359.09 182.64
  Q 361.66 190.33 362.25 191.80
  C 365.25 199.25 367.06 208.91 369.23 215.65
  C 372.40 225.47 374.37 237.64 375.51 246.50
  C 376.45 253.78 376.20 260.71 376.18 267.59
  A 5.05 5.04 -37.8 0 1 376.02 268.85
  Q 375.23 271.98 375.18 274.36
  C 375.12 277.01 374.31 278.84 374.27 281.09
  Q 374.25 282.49 373.12 286.01
  Q 372.25 288.74 372.14 291.80
  A 4.58 4.38 -36.6 0 1 371.94 292.98
  C 369.13 301.88 367.22 308.58 363.49 317.03
  Q 360.02 324.88 358.26 328.50
  Q 355.12 335.00 346.50 347.25
  C 337.52 360.02 326.11 371.16 312.80 379.42
  Q 304.70 384.45 303.02 385.27
  Q 287.35 392.92 268.58 396.89
  C 265.83 397.47 261.71 397.08 258.20 397.72
  Q 254.96 398.32 252.03 398.23
  C 249.97 398.17 247.75 399.12 245.97 398.69
  C 241.69 397.65 236.65 398.63 233.06 397.59
  A 5.46 5.42 53.0 0 0 231.53 397.37
  Q 225.55 397.41 219.20 395.02
  Q 219.05 394.96 211.56 392.44
  Q 199.50 388.39 190.91 383.53
  Q 171.29 372.42 155.90 354.61
  Q 149.29 346.96 141.93 334.19
  C 139.74 330.40 138.45 326.49 136.75 323.24
  C 133.56 317.14 131.96 308.08 130.31 303.34
  Q 128.81 299.04 128.09 293.62
  Q 126.93 285.01 126.87 283.75
  Q 126.66 278.99 125.93 276.51
  A 2.86 2.75 -54.2 0 1 125.82 275.73
  L 125.82 266.72
  A 2.24 2.23 -34.2 0 1 125.98 265.89
  Q 126.53 264.41 126.97 255.51
  Q 127.09 253.17 128.60 244.13
  Q 129.43 239.22 131.29 232.97
  Q 131.99 230.62 134.38 221.86
  Q 135.83 216.53 142.94 199.27
  Q 144.75 194.88 145.07 193.93
  Q 146.03 190.99 147.32 188.63
  Q 149.00 185.56 150.80 180.75
  Q 157.57 162.68 161.27 151.54
  C 163.90 143.61 165.25 134.53 167.45 125.59
  Q 171.01 111.14 172.63 94.99
  C 173.48 86.53 171.73 75.74 166.02 69.23
  Q 159.49 61.78 150.59 59.08
  Q 139.84 55.82 132.86 54.64
  C 128.17 53.85 121.52 54.41 115.78 53.88
  Q 113.53 53.68 110.16 54.35
  A 1.03 1.03 0.0 0 0 109.42 54.96"
/>
<path stroke="#f18383" vector-effect="non-scaling-stroke" d="
  M 151.87 131.24
  A 6.55 6.55 0.0 0 0 145.32 124.69
  A 6.55 6.55 0.0 0 0 138.77 131.24
  A 6.55 6.55 0.0 0 0 145.32 137.79
  A 6.55 6.55 0.0 0 0 151.87 131.24"
/>
<path stroke="#f18383" vector-effect="non-scaling-stroke" d="
  M 362.4478 126.0264
  A 6.70 6.26 -92.5 0 0 356.4860 132.9931
  A 6.70 6.26 -92.5 0 0 363.0322 139.4136
  A 6.70 6.26 -92.5 0 0 368.9940 132.4469
  A 6.70 6.26 -92.5 0 0 362.4478 126.0264"
/>
<path stroke="#f18383" vector-effect="non-scaling-stroke" d="
  M 106.8483 263.7347
  A 6.77 6.37 -85.1 0 0 99.9233 269.9359
  A 6.77 6.37 -85.1 0 0 105.6917 277.2253
  A 6.77 6.37 -85.1 0 0 112.6167 271.0241
  A 6.77 6.37 -85.1 0 0 106.8483 263.7347"
/>
<path stroke="#f18383" vector-effect="non-scaling-stroke" d="
  M 398.1858 266.4207
  A 6.75 6.47 -90.8 0 0 391.8106 273.2603
  A 6.75 6.47 -90.8 0 0 398.3742 279.9193
  A 6.75 6.47 -90.8 0 0 404.7494 273.0797
  A 6.75 6.47 -90.8 0 0 398.1858 266.4207"
/>
<path stroke="#f18383" vector-effect="non-scaling-stroke" d="
  M 142.5713 368.4707
  A 5.63 5.63 0.0 0 0 134.6137 368.2067
  L 133.5331 369.2180
  A 5.63 5.63 0.0 0 0 133.2691 377.1756
  L 134.3487 378.3293
  A 5.63 5.63 0.0 0 0 142.3063 378.5933
  L 143.3869 377.5820
  A 5.63 5.63 0.0 0 0 143.6509 369.6244
  L 142.5713 368.4707"
/>
<path stroke="#f18383" vector-effect="non-scaling-stroke" d="
  M 367.1990 371.7572
  A 6.69 6.54 -15.1 0 0 359.0363 367.1858
  A 6.69 6.54 -15.1 0 0 354.2810 375.2428
  A 6.69 6.54 -15.1 0 0 362.4437 379.8142
  A 6.69 6.54 -15.1 0 0 367.1990 371.7572"
/>
<path stroke="#f18383" vector-effect="non-scaling-stroke" d="
  M 242.4366 417.8529
  A 6.81 6.57 -119.5 0 0 240.0718 427.0152
  A 6.81 6.57 -119.5 0 0 249.1434 429.7071
  A 6.81 6.57 -119.5 0 0 251.5082 420.5448
  A 6.81 6.57 -119.5 0 0 242.4366 417.8529"
/>
</g>
<path fill="#ffffff" d="
  M 400.68 135.82
  Q 402.30 137.20 403.07 138.90
  Q 411.19 156.70 416.09 166.67
  Q 417.74 170.01 421.80 179.43
  Q 432.56 204.38 436.30 230.80
  Q 437.21 237.21 437.20 239.78
  C 437.18 244.18 438.14 247.14 438.15 251.75
  Q 438.18 262.41 438.08 272.28
  A 10.52 10.28 52.1 0 1 437.84 274.41
  Q 436.99 278.13 437.15 283.08
  A 11.50 11.29 -40.7 0 1 436.93 285.68
  C 435.87 290.91 435.36 298.35 434.26 304.04
  Q 431.28 319.52 425.90 336.33
  C 425.04 339.02 422.86 342.61 422.83 344.89
  A 2.59 2.50 61.3 0 1 422.49 346.13
  Q 421.12 348.57 417.59 357.14
  C 415.24 362.88 411.24 369.23 407.97 374.86
  C 404.64 380.60 400.12 386.29 397.13 390.70
  C 394.01 395.31 390.65 398.26 387.30 402.46
  Q 385.43 404.79 383.17 407.06
  Q 361.86 428.31 340.93 439.69
  Q 317.99 452.16 293.13 458.57
  C 290.22 459.32 287.00 459.70 284.00 460.37
  Q 273.15 462.79 269.00 463.05
  Q 263.67 463.39 261.40 463.97
  A 3.76 3.67 -52.0 0 1 260.59 464.08
  Q 254.42 464.20 253.35 464.18
  Q 250.98 464.12 249.67 464.43
  C 247.92 464.82 246.54 464.12 244.77 464.18
  C 241.87 464.29 235.26 464.20 230.77 463.49
  Q 229.61 463.31 225.27 462.97
  Q 216.48 462.28 203.10 459.29
  Q 181.08 454.38 160.61 443.65
  Q 142.32 434.07 129.20 421.80
  C 124.75 417.65 117.77 411.17 112.96 405.39
  Q 98.86 388.50 88.68 368.93
  Q 85.77 363.35 83.98 358.61
  C 82.06 353.54 80.28 349.97 78.42 344.53
  C 69.25 317.75 64.05 292.62 63.83 264.61
  Q 63.80 260.31 64.42 255.94
  C 64.93 252.27 64.74 248.47 65.45 244.41
  Q 68.01 229.82 68.89 226.88
  Q 74.31 208.66 79.20 197.63
  C 81.92 191.47 84.85 184.56 87.52 179.26
  Q 102.34 149.91 106.71 140.95
  Q 110.53 133.11 112.55 124.03
  C 113.53 119.63 112.12 112.58 106.93 111.33
  Q 103.47 110.50 98.03 109.72
  Q 96.07 109.43 95.69 108.74
  C 95.23 107.90 95.85 106.65 95.56 105.46
  Q 94.36 100.58 94.99 96.99
  Q 96.13 90.49 95.88 87.29
  A 6.86 6.73 -41.0 0 1 96.05 85.19
  Q 96.89 81.71 96.83 77.93
  C 96.78 74.24 97.90 71.16 97.81 67.24
  Q 97.72 63.00 98.58 59.80
  Q 98.59 59.75 99.09 52.35
  Q 99.53 45.69 106.08 43.89
  A 1.39 1.23 -48.6 0 1 106.40 43.85
  L 119.17 43.93
  A 3.59 3.56 52.4 0 1 119.92 44.03
  L 124.04 45.08
  A 3.58 3.51 -41.6 0 0 125.46 45.15
  Q 129.18 44.59 133.11 45.16
  C 138.99 46.01 147.21 47.05 152.46 49.67
  Q 157.99 52.44 159.26 52.64
  Q 160.32 52.80 165.66 56.33
  Q 177.55 64.21 180.65 78.62
  C 182.19 85.80 182.86 92.94 181.61 99.64
  C 181.10 102.38 181.22 104.77 180.61 107.43
  Q 179.84 110.86 178.27 120.01
  C 176.79 128.74 173.77 139.61 172.02 146.90
  C 170.61 152.75 168.42 157.78 166.90 163.50
  C 165.47 168.86 162.23 175.80 160.82 179.81
  Q 159.80 182.71 156.85 189.49
  Q 150.49 204.09 144.08 221.88
  C 141.58 228.79 140.53 234.53 138.46 242.25
  Q 137.12 247.25 136.60 252.35
  Q 135.61 262.10 135.46 262.57
  Q 135.08 263.81 135.14 268.42
  C 135.19 272.75 134.95 275.27 135.73 279.13
  Q 136.25 281.68 136.15 284.13
  A 7.35 7.28 40.2 0 0 136.32 286.03
  C 137.08 289.50 136.93 292.19 137.97 295.11
  C 139.37 299.07 141.01 307.95 142.99 313.55
  Q 147.43 326.12 154.80 337.52
  Q 155.86 339.15 160.16 345.31
  Q 163.15 349.57 166.30 352.36
  C 170.48 356.07 175.18 361.62 180.91 365.87
  Q 203.19 382.38 230.21 388.03
  Q 233.25 388.67 236.96 388.91
  Q 239.68 389.09 243.74 389.64
  Q 247.44 390.15 252.03 389.06
  C 254.12 388.56 257.80 388.97 260.67 388.57
  Q 312.18 381.34 341.26 338.53
  Q 346.36 331.02 350.54 322.79
  Q 351.19 321.49 355.23 312.43
  Q 358.09 306.00 359.15 301.80
  Q 360.12 298.00 362.17 292.34
  C 364.46 286.06 365.23 278.82 366.31 271.22
  C 366.99 266.47 366.77 262.75 366.83 257.92
  Q 366.86 255.62 366.55 252.58
  Q 363.88 227.17 356.54 204.45
  C 353.24 194.26 347.79 178.03 342.20 165.17
  Q 336.93 153.04 336.08 151.00
  Q 329.87 136.06 328.21 130.31
  Q 325.54 121.09 324.12 110.72
  C 323.73 107.88 324.36 102.90 323.14 99.34
  A 2.53 2.50 -45.7 0 1 323.13 97.75
  Q 324.03 94.96 323.89 90.04
  A 6.71 6.59 -38.4 0 1 324.13 88.13
  Q 327.60 76.07 335.44 68.92
  Q 343.85 61.26 357.48 55.49
  Q 359.83 54.49 373.97 49.40
  A 6.56 6.56 0.0 0 1 375.64 49.02
  Q 378.77 48.72 382.60 46.97
  A 1.12 1.12 0.0 0 1 383.25 46.87
  L 384.95 47.12
  A 3.08 3.07 39.3 0 0 386.47 46.97
  Q 391.29 45.21 392.91 45.11
  Q 397.97 44.80 402.34 43.88
  A 3.51 3.50 -28.4 0 1 405.54 44.83
  L 409.08 48.37
  A 3.09 3.08 19.1 0 1 409.96 50.17
  L 411.16 59.34
  A 3.76 3.05 -53.1 0 1 411.18 59.87
  Q 410.94 66.34 411.95 70.09
  A 2.16 2.15 48.5 0 1 411.87 71.46
  C 410.71 74.37 412.15 79.00 412.22 81.87
  Q 412.34 86.82 412.52 87.75
  C 413.45 92.55 413.17 98.28 413.16 102.83
  A 1.71 1.66 -23.2 0 1 412.66 104.02
  L 408.67 108.01
  A 3.70 3.64 -73.3 0 1 406.90 108.98
  C 403.38 109.76 398.28 110.96 397.50 114.87
  Q 395.96 122.55 399.72 130.09
  Q 400.93 132.53 400.31 134.61
  A 1.17 1.15 28.4 0 0 400.68 135.82
  Z
  M 109.42 54.96
  Q 108.06 58.31 108.17 61.47
  C 108.26 64.31 107.10 66.62 107.22 69.59
  C 107.34 72.58 106.18 75.92 106.14 79.31
  A 8.63 8.22 -40.1 0 1 105.96 80.94
  Q 104.81 86.43 105.26 91.53
  Q 105.28 91.78 104.36 95.81
  C 103.04 101.64 108.86 101.98 112.61 103.44
  A 6.58 6.46 74.8 0 1 114.27 104.41
  Q 122.10 110.84 122.28 120.51
  C 122.34 123.75 121.06 128.81 120.35 131.78
  C 119.39 135.84 117.14 138.80 115.84 142.91
  C 114.71 146.47 112.44 149.78 110.49 153.71
  Q 100.80 173.21 99.74 175.15
  C 97.78 178.75 96.30 183.79 93.78 187.59
  C 91.80 190.57 91.05 193.80 89.48 196.70
  C 86.87 201.53 85.77 206.39 83.45 212.11
  Q 81.87 216.03 80.51 220.64
  C 76.45 234.42 73.18 248.50 73.14 262.84
  Q 73.10 276.04 73.24 278.00
  Q 73.79 285.73 76.16 300.39
  C 77.10 306.17 78.73 311.77 79.93 317.79
  Q 80.98 323.01 83.58 330.61
  C 88.02 343.55 90.08 349.84 95.27 360.88
  Q 98.43 367.60 103.44 375.72
  Q 110.35 386.93 112.64 389.95
  C 125.46 406.89 140.54 421.25 158.77 431.98
  C 162.34 434.08 168.37 437.45 173.32 439.58
  Q 198.18 450.32 224.28 453.41
  Q 228.44 453.90 234.71 453.86
  A 13.11 12.91 -38.8 0 1 237.30 454.12
  C 242.82 455.24 248.68 454.82 255.94 454.78
  C 259.38 454.77 261.97 453.87 265.15 453.85
  C 269.58 453.84 273.31 452.87 279.69 451.89
  Q 283.02 451.37 287.24 450.32
  Q 301.85 446.70 316.80 440.88
  Q 325.15 437.64 331.91 433.91
  Q 340.35 429.25 346.35 425.59
  C 358.79 418.01 371.14 407.60 381.04 395.91
  Q 390.91 384.26 392.58 381.83
  Q 393.99 379.79 398.77 372.23
  Q 401.24 368.32 402.14 366.27
  C 404.18 361.60 406.78 358.46 409.03 353.38
  C 410.77 349.47 413.00 345.69 414.40 340.35
  C 415.44 336.39 417.27 332.58 418.35 329.07
  Q 419.35 325.81 422.74 312.06
  Q 425.70 300.09 427.22 288.47
  C 427.89 283.34 427.84 279.47 427.82 274.47
  A 11.30 10.80 51.9 0 1 428.03 272.32
  C 429.25 266.22 429.16 257.18 428.21 249.53
  Q 427.90 247.07 427.76 240.50
  Q 427.66 236.19 425.72 223.83
  Q 424.69 217.26 422.57 209.92
  Q 419.09 197.91 418.47 196.26
  Q 411.25 177.06 398.72 151.88
  C 395.90 146.23 393.87 141.03 391.42 135.32
  Q 388.63 128.79 387.84 120.98
  Q 386.66 109.18 396.38 103.09
  C 398.04 102.05 400.12 101.46 401.76 100.74
  C 404.96 99.33 403.64 95.85 403.14 93.30
  A 14.94 14.64 -51.3 0 1 402.87 90.59
  Q 402.81 83.04 402.82 76.40
  C 402.83 71.32 401.74 66.13 401.83 60.84
  C 401.92 56.07 400.22 53.35 395.31 54.29
  Q 382.85 56.66 369.30 60.82
  C 362.26 62.99 356.06 65.87 350.45 69.19
  Q 343.98 73.00 339.19 78.60
  C 335.15 83.31 333.16 89.37 333.18 95.24
  C 333.19 100.28 332.98 103.58 333.72 108.21
  C 334.46 112.86 334.80 119.29 336.07 124.34
  C 337.54 130.20 339.78 134.27 341.49 139.48
  Q 342.76 143.35 344.42 147.02
  Q 355.02 170.41 359.09 182.64
  Q 361.66 190.33 362.25 191.80
  C 365.25 199.25 367.06 208.91 369.23 215.65
  C 372.40 225.47 374.37 237.64 375.51 246.50
  C 376.45 253.78 376.20 260.71 376.18 267.59
  A 5.05 5.04 -37.8 0 1 376.02 268.85
  Q 375.23 271.98 375.18 274.36
  C 375.12 277.01 374.31 278.84 374.27 281.09
  Q 374.25 282.49 373.12 286.01
  Q 372.25 288.74 372.14 291.80
  A 4.58 4.38 -36.6 0 1 371.94 292.98
  C 369.13 301.88 367.22 308.58 363.49 317.03
  Q 360.02 324.88 358.26 328.50
  Q 355.12 335.00 346.50 347.25
  C 337.52 360.02 326.11 371.16 312.80 379.42
  Q 304.70 384.45 303.02 385.27
  Q 287.35 392.92 268.58 396.89
  C 265.83 397.47 261.71 397.08 258.20 397.72
  Q 254.96 398.32 252.03 398.23
  C 249.97 398.17 247.75 399.12 245.97 398.69
  C 241.69 397.65 236.65 398.63 233.06 397.59
  A 5.46 5.42 53.0 0 0 231.53 397.37
  Q 225.55 397.41 219.20 395.02
  Q 219.05 394.96 211.56 392.44
  Q 199.50 388.39 190.91 383.53
  Q 171.29 372.42 155.90 354.61
  Q 149.29 346.96 141.93 334.19
  C 139.74 330.40 138.45 326.49 136.75 323.24
  C 133.56 317.14 131.96 308.08 130.31 303.34
  Q 128.81 299.04 128.09 293.62
  Q 126.93 285.01 126.87 283.75
  Q 126.66 278.99 125.93 276.51
  A 2.86 2.75 -54.2 0 1 125.82 275.73
  L 125.82 266.72
  A 2.24 2.23 -34.2 0 1 125.98 265.89
  Q 126.53 264.41 126.97 255.51
  Q 127.09 253.17 128.60 244.13
  Q 129.43 239.22 131.29 232.97
  Q 131.99 230.62 134.38 221.86
  Q 135.83 216.53 142.94 199.27
  Q 144.75 194.88 145.07 193.93
  Q 146.03 190.99 147.32 188.63
  Q 149.00 185.56 150.80 180.75
  Q 157.57 162.68 161.27 151.54
  C 163.90 143.61 165.25 134.53 167.45 125.59
  Q 171.01 111.14 172.63 94.99
  C 173.48 86.53 171.73 75.74 166.02 69.23
  Q 159.49 61.78 150.59 59.08
  Q 139.84 55.82 132.86 54.64
  C 128.17 53.85 121.52 54.41 115.78 53.88
  Q 113.53 53.68 110.16 54.35
  A 1.03 1.03 0.0 0 0 109.42 54.96
  Z"
/>
<path fill="#e30606" d="
  M 110.16 54.35
  Q 113.53 53.68 115.78 53.88
  C 121.52 54.41 128.17 53.85 132.86 54.64
  Q 139.84 55.82 150.59 59.08
  Q 159.49 61.78 166.02 69.23
  C 171.73 75.74 173.48 86.53 172.63 94.99
  Q 171.01 111.14 167.45 125.59
  C 165.25 134.53 163.90 143.61 161.27 151.54
  Q 157.57 162.68 150.80 180.75
  Q 149.00 185.56 147.32 188.63
  Q 146.03 190.99 145.07 193.93
  Q 144.75 194.88 142.94 199.27
  Q 135.83 216.53 134.38 221.86
  Q 131.99 230.62 131.29 232.97
  Q 129.43 239.22 128.60 244.13
  Q 127.09 253.17 126.97 255.51
  Q 126.53 264.41 125.98 265.89
  A 2.24 2.23 -34.2 0 0 125.82 266.72
  L 125.82 275.73
  A 2.86 2.75 -54.2 0 0 125.93 276.51
  Q 126.66 278.99 126.87 283.75
  Q 126.93 285.01 128.09 293.62
  Q 128.81 299.04 130.31 303.34
  C 131.96 308.08 133.56 317.14 136.75 323.24
  C 138.45 326.49 139.74 330.40 141.93 334.19
  Q 149.29 346.96 155.90 354.61
  Q 171.29 372.42 190.91 383.53
  Q 199.50 388.39 211.56 392.44
  Q 219.05 394.96 219.20 395.02
  Q 225.55 397.41 231.53 397.37
  A 5.46 5.42 53.0 0 1 233.06 397.59
  C 236.65 398.63 241.69 397.65 245.97 398.69
  C 247.75 399.12 249.97 398.17 252.03 398.23
  Q 254.96 398.32 258.20 397.72
  C 261.71 397.08 265.83 397.47 268.58 396.89
  Q 287.35 392.92 303.02 385.27
  Q 304.70 384.45 312.80 379.42
  C 326.11 371.16 337.52 360.02 346.50 347.25
  Q 355.12 335.00 358.26 328.50
  Q 360.02 324.88 363.49 317.03
  C 367.22 308.58 369.13 301.88 371.94 292.98
  A 4.58 4.38 -36.6 0 0 372.14 291.80
  Q 372.25 288.74 373.12 286.01
  Q 374.25 282.49 374.27 281.09
  C 374.31 278.84 375.12 277.01 375.18 274.36
  Q 375.23 271.98 376.02 268.85
  A 5.05 5.04 -37.8 0 0 376.18 267.59
  C 376.20 260.71 376.45 253.78 375.51 246.50
  C 374.37 237.64 372.40 225.47 369.23 215.65
  C 367.06 208.91 365.25 199.25 362.25 191.80
  Q 361.66 190.33 359.09 182.64
  Q 355.02 170.41 344.42 147.02
  Q 342.76 143.35 341.49 139.48
  C 339.78 134.27 337.54 130.20 336.07 124.34
  C 334.80 119.29 334.46 112.86 333.72 108.21
  C 332.98 103.58 333.19 100.28 333.18 95.24
  C 333.16 89.37 335.15 83.31 339.19 78.60
  Q 343.98 73.00 350.45 69.19
  C 356.06 65.87 362.26 62.99 369.30 60.82
  Q 382.85 56.66 395.31 54.29
  C 400.22 53.35 401.92 56.07 401.83 60.84
  C 401.74 66.13 402.83 71.32 402.82 76.40
  Q 402.81 83.04 402.87 90.59
  A 14.94 14.64 -51.3 0 0 403.14 93.30
  C 403.64 95.85 404.96 99.33 401.76 100.74
  C 400.12 101.46 398.04 102.05 396.38 103.09
  Q 386.66 109.18 387.84 120.98
  Q 388.63 128.79 391.42 135.32
  C 393.87 141.03 395.90 146.23 398.72 151.88
  Q 411.25 177.06 418.47 196.26
  Q 419.09 197.91 422.57 209.92
  Q 424.69 217.26 425.72 223.83
  Q 427.66 236.19 427.76 240.50
  Q 427.90 247.07 428.21 249.53
  C 429.16 257.18 429.25 266.22 428.03 272.32
  A 11.30 10.80 51.9 0 0 427.82 274.47
  C 427.84 279.47 427.89 283.34 427.22 288.47
  Q 425.70 300.09 422.74 312.06
  Q 419.35 325.81 418.35 329.07
  C 417.27 332.58 415.44 336.39 414.40 340.35
  C 413.00 345.69 410.77 349.47 409.03 353.38
  C 406.78 358.46 404.18 361.60 402.14 366.27
  Q 401.24 368.32 398.77 372.23
  Q 393.99 379.79 392.58 381.83
  Q 390.91 384.26 381.04 395.91
  C 371.14 407.60 358.79 418.01 346.35 425.59
  Q 340.35 429.25 331.91 433.91
  Q 325.15 437.64 316.80 440.88
  Q 301.85 446.70 287.24 450.32
  Q 283.02 451.37 279.69 451.89
  C 273.31 452.87 269.58 453.84 265.15 453.85
  C 261.97 453.87 259.38 454.77 255.94 454.78
  C 248.68 454.82 242.82 455.24 237.30 454.12
  A 13.11 12.91 -38.8 0 0 234.71 453.86
  Q 228.44 453.90 224.28 453.41
  Q 198.18 450.32 173.32 439.58
  C 168.37 437.45 162.34 434.08 158.77 431.98
  C 140.54 421.25 125.46 406.89 112.64 389.95
  Q 110.35 386.93 103.44 375.72
  Q 98.43 367.60 95.27 360.88
  C 90.08 349.84 88.02 343.55 83.58 330.61
  Q 80.98 323.01 79.93 317.79
  C 78.73 311.77 77.10 306.17 76.16 300.39
  Q 73.79 285.73 73.24 278.00
  Q 73.10 276.04 73.14 262.84
  C 73.18 248.50 76.45 234.42 80.51 220.64
  Q 81.87 216.03 83.45 212.11
  C 85.77 206.39 86.87 201.53 89.48 196.70
  C 91.05 193.80 91.80 190.57 93.78 187.59
  C 96.30 183.79 97.78 178.75 99.74 175.15
  Q 100.80 173.21 110.49 153.71
  C 112.44 149.78 114.71 146.47 115.84 142.91
  C 117.14 138.80 119.39 135.84 120.35 131.78
  C 121.06 128.81 122.34 123.75 122.28 120.51
  Q 122.10 110.84 114.27 104.41
  A 6.58 6.46 74.8 0 0 112.61 103.44
  C 108.86 101.98 103.04 101.64 104.36 95.81
  Q 105.28 91.78 105.26 91.53
  Q 104.81 86.43 105.96 80.94
  A 8.63 8.22 -40.1 0 0 106.14 79.31
  C 106.18 75.92 107.34 72.58 107.22 69.59
  C 107.10 66.62 108.26 64.31 108.17 61.47
  Q 108.06 58.31 109.42 54.96
  A 1.03 1.03 0.0 0 1 110.16 54.35
  Z
  M 151.87 131.24
  A 6.55 6.55 0.0 0 0 145.32 124.69
  A 6.55 6.55 0.0 0 0 138.77 131.24
  A 6.55 6.55 0.0 0 0 145.32 137.79
  A 6.55 6.55 0.0 0 0 151.87 131.24
  Z
  M 362.4478 126.0264
  A 6.70 6.26 -92.5 0 0 356.4860 132.9931
  A 6.70 6.26 -92.5 0 0 363.0322 139.4136
  A 6.70 6.26 -92.5 0 0 368.9940 132.4469
  A 6.70 6.26 -92.5 0 0 362.4478 126.0264
  Z
  M 106.8483 263.7347
  A 6.77 6.37 -85.1 0 0 99.9233 269.9359
  A 6.77 6.37 -85.1 0 0 105.6917 277.2253
  A 6.77 6.37 -85.1 0 0 112.6167 271.0241
  A 6.77 6.37 -85.1 0 0 106.8483 263.7347
  Z
  M 398.1858 266.4207
  A 6.75 6.47 -90.8 0 0 391.8106 273.2603
  A 6.75 6.47 -90.8 0 0 398.3742 279.9193
  A 6.75 6.47 -90.8 0 0 404.7494 273.0797
  A 6.75 6.47 -90.8 0 0 398.1858 266.4207
  Z
  M 142.5713 368.4707
  A 5.63 5.63 0.0 0 0 134.6137 368.2067
  L 133.5331 369.2180
  A 5.63 5.63 0.0 0 0 133.2691 377.1756
  L 134.3487 378.3293
  A 5.63 5.63 0.0 0 0 142.3063 378.5933
  L 143.3869 377.5820
  A 5.63 5.63 0.0 0 0 143.6509 369.6244
  L 142.5713 368.4707
  Z
  M 367.1990 371.7572
  A 6.69 6.54 -15.1 0 0 359.0363 367.1858
  A 6.69 6.54 -15.1 0 0 354.2810 375.2428
  A 6.69 6.54 -15.1 0 0 362.4437 379.8142
  A 6.69 6.54 -15.1 0 0 367.1990 371.7572
  Z
  M 242.4366 417.8529
  A 6.81 6.57 -119.5 0 0 240.0718 427.0152
  A 6.81 6.57 -119.5 0 0 249.1434 429.7071
  A 6.81 6.57 -119.5 0 0 251.5082 420.5448
  A 6.81 6.57 -119.5 0 0 242.4366 417.8529
  Z"
/>
<circle fill="#ffffff" cx="145.32" cy="131.24" r="6.55"/>
<ellipse fill="#ffffff" cx="0.00" cy="0.00" transform="translate(362.74,132.72) rotate(-92.5)" rx="6.70" ry="6.26"/>
<ellipse fill="#ffffff" cx="0.00" cy="0.00" transform="translate(106.27,270.48) rotate(-85.1)" rx="6.77" ry="6.37"/>
<ellipse fill="#ffffff" cx="0.00" cy="0.00" transform="translate(398.28,273.17) rotate(-90.8)" rx="6.75" ry="6.47"/>
<rect fill="#ffffff" x="-6.37" y="-6.42" transform="translate(138.46,373.40) rotate(-43.1)" width="12.74" height="12.84" rx="5.63"/>
<ellipse fill="#ffffff" cx="0.00" cy="0.00" transform="translate(360.74,373.50) rotate(-15.1)" rx="6.69" ry="6.54"/>
<ellipse fill="#ffffff" cx="0.00" cy="0.00" transform="translate(245.79,423.78) rotate(-119.5)" rx="6.81" ry="6.57"/>
</svg>
